<svg width="21" height="20" viewBox="0 0 21 20" fill="none" xmlns="http://www.w3.org/2000/svg">
<path d="M2.54228 5.16667C2.54228 4.23325 2.54228 3.76654 2.72394 3.41002C2.88373 3.09641 3.13869 2.84144 3.4523 2.68166C3.80882 2.5 4.27553 2.5 5.20895 2.5H5.54228C7.40912 2.5 8.34254 2.5 9.05558 2.86331C9.68279 3.18289 10.1927 3.69282 10.5123 4.32003C10.8756 5.03307 10.8756 5.96649 10.8756 7.83333V17.5L10.7922 17.3749C10.2134 16.5066 9.92393 16.0725 9.54153 15.7582C9.203 15.4799 8.81292 15.2712 8.39362 15.1438C7.91999 15 7.39821 15 6.35464 15H5.20895C4.27553 15 3.80882 15 3.4523 14.8183C3.13869 14.6586 2.88373 14.4036 2.72394 14.09C2.54228 13.7335 2.54228 13.2668 2.54228 12.3333V5.16667Z" fill="white" fill-opacity="0.12"/>
<path d="M19.209 5.16667C19.209 4.23325 19.209 3.76654 19.0273 3.41002C18.8675 3.09641 18.6125 2.84144 18.2989 2.68166C17.9424 2.5 17.4757 2.5 16.5423 2.5H16.2089C14.3421 2.5 13.4087 2.5 12.6956 2.86331C12.0684 3.18289 11.5585 3.69282 11.2389 4.32003C10.8756 5.03307 10.8756 5.96649 10.8756 7.83333V17.5L10.959 17.3749C11.5379 16.5066 11.8273 16.0725 12.2097 15.7582C12.5482 15.4799 12.9383 15.2712 13.3576 15.1438C13.8312 15 14.353 15 15.3966 15H16.5423C17.4757 15 17.9424 15 18.2989 14.8183C18.6125 14.6586 18.8675 14.4036 19.0273 14.09C19.209 13.7335 19.209 13.2668 19.209 12.3333V5.16667Z" fill="white" fill-opacity="0.12"/>
<path d="M10.8756 17.5L10.7922 17.3749C10.2134 16.5066 9.92393 16.0725 9.54153 15.7582C9.203 15.4799 8.81292 15.2712 8.39362 15.1438C7.91999 15 7.39821 15 6.35464 15H5.20895C4.27553 15 3.80882 15 3.4523 14.8183C3.13869 14.6586 2.88373 14.4036 2.72394 14.09C2.54228 13.7335 2.54228 13.2668 2.54228 12.3333V5.16667C2.54228 4.23325 2.54228 3.76654 2.72394 3.41002C2.88373 3.09641 3.13869 2.84144 3.4523 2.68166C3.80882 2.5 4.27553 2.5 5.20895 2.5H5.54228C7.40912 2.5 8.34254 2.5 9.05558 2.86331C9.68279 3.18289 10.1927 3.69282 10.5123 4.32003C10.8756 5.03307 10.8756 5.96649 10.8756 7.83333M10.8756 17.5V7.83333M10.8756 17.5L10.959 17.3749C11.5379 16.5066 11.8273 16.0725 12.2097 15.7582C12.5482 15.4799 12.9383 15.2712 13.3576 15.1438C13.8312 15 14.353 15 15.3966 15H16.5423C17.4757 15 17.9424 15 18.2989 14.8183C18.6125 14.6586 18.8675 14.4036 19.0273 14.09C19.2089 13.7335 19.2089 13.2668 19.2089 12.3333V5.16667C19.2089 4.23325 19.2089 3.76654 19.0273 3.41002C18.8675 3.09641 18.6125 2.84144 18.2989 2.68166C17.9424 2.5 17.4757 2.5 16.5423 2.5H16.2089C14.3421 2.5 13.4087 2.5 12.6956 2.86331C12.0684 3.18289 11.5585 3.69282 11.2389 4.32003C10.8756 5.03307 10.8756 5.96649 10.8756 7.83333" stroke="white" stroke-width="1.5" stroke-linecap="round" stroke-linejoin="round"/>
</svg>
