<svg width="147" height="48" viewBox="0 0 147 48" fill="none" xmlns="http://www.w3.org/2000/svg">
<path d="M4.99505 1.29222C6.05221 3.08077 7.25683 4.72176 8.45937 6.3851C11.1095 10.0606 13.7348 13.7807 16.5843 17.2818C17.4525 18.3482 18.437 19.2582 19.762 19.5957C25.079 20.9371 29.5922 16.79 30.209 11.1873C30.803 5.79712 27.4156 0.0849559 22.0446 0.0603634C16.4563 0.0380066 10.8665 0.0178854 5.27544 0C4.56928 0 4.56928 0.427015 4.78943 0.894272C4.85144 1.03071 4.92007 1.16355 4.99505 1.29222ZM42.6914 46.9493C42.2906 46.5446 41.8897 46.14 41.4847 45.742C39.1025 43.3722 14.1232 21.6861 2.96381 1.51356C2.89725 1.38511 2.83694 1.25302 2.78311 1.11784C2.76743 1.06952 2.7398 1.02671 2.70321 0.994012C2.66661 0.961318 2.62244 0.939976 2.57542 0.932279C2.36773 0.898744 2.29919 1.08207 2.21611 1.22515C1.88588 1.78184 1.7488 2.42124 1.59303 3.045C0.633488 6.97085 0.218102 10.9817 0.0581776 15.0193C-0.0453079 17.4554 -0.0127105 19.8959 0.155794 22.3277C0.390487 25.5181 0.868182 28.6547 1.8568 31.6818C2.78935 34.539 4.14143 37.1235 6.33052 39.0998C7.68262 40.2966 9.27919 41.131 10.9891 41.5345C11.3505 41.6261 11.4045 41.5546 11.2799 41.1633C11.2591 41.094 11.2342 41.027 11.2113 40.9599C10.051 37.7316 8.8893 34.504 7.72622 31.2772C7.38975 30.3404 7.04914 29.4059 6.7106 28.4692C6.84921 28.5571 6.96162 28.6859 7.0346 28.8403C8.1063 30.8703 9.16761 32.9092 10.2497 34.9325C11.3962 37.081 12.6693 39.1244 14.4306 40.7587C15.9802 42.1945 17.8005 43.2517 19.7662 43.8573C21.1659 44.3143 22.6086 44.6015 24.0675 44.7136C24.1838 44.7136 24.323 44.8008 24.4061 44.6801C24.4892 44.5593 24.3728 44.4386 24.3126 44.3335C23.6895 43.2627 23.0519 42.1895 22.4143 41.1231L17.3653 32.6767C15.8962 30.2264 14.4347 27.7746 12.9809 25.3213L11.2549 22.4149L11.3297 22.3702C11.3816 22.4351 11.4356 22.4954 11.4834 22.5625C12.9372 24.5142 14.2852 26.5353 15.6663 28.5385C17.4213 31.0871 19.1826 33.6269 21.1017 36.0392C22.1401 37.3426 23.2015 38.6236 24.3438 39.8197C25.9124 41.5043 27.6377 43.0109 29.4925 44.3157C30.7104 45.1578 32.0014 45.8706 33.3473 46.444C34.8701 47.0933 36.4747 47.4934 38.1076 47.6312C39.603 47.7585 41.1077 47.6584 42.5772 47.3338C42.6789 47.3115 42.8098 47.3182 42.8389 47.1773C42.8679 47.0365 42.7558 47.0052 42.6914 46.9493Z" fill="white"/>
<path d="M108.416 14.1317H102.63L100.572 29.9425H106.95C108.164 29.9725 109.346 29.5231 110.273 28.6793C111.176 27.8783 111.761 26.7363 111.907 25.4867C112.028 24.6826 111.924 23.8581 111.61 23.1169C111.305 22.4268 110.773 21.8829 110.117 21.5899C111.406 20.8656 112.147 19.7582 112.339 18.2677C112.503 17.0262 112.226 16.0261 111.509 15.2674C110.791 14.5088 109.761 14.1302 108.416 14.1317ZM110.078 25.4867C110.008 26.0486 109.837 26.5903 109.573 27.0808C109.361 27.4906 109.061 27.8401 108.699 28.1003C108.403 28.3043 108.085 28.4681 107.751 28.5876C107.479 28.6853 107.195 28.7373 106.908 28.7419H102.547L103.39 22.2763H107.751C107.924 22.2771 108.097 22.295 108.267 22.33C108.464 22.3748 108.657 22.4422 108.842 22.5312C109.044 22.6238 109.229 22.7548 109.388 22.9179C109.556 23.0955 109.701 23.2962 109.82 23.5149C109.958 23.7783 110.045 24.0686 110.078 24.3689C110.117 24.7403 110.117 25.1153 110.078 25.4867ZM110.53 18.2007C110.468 18.7126 110.314 19.2067 110.078 19.6561C109.889 20.0186 109.62 20.3257 109.295 20.5504C109.032 20.7272 108.748 20.8649 108.451 20.9595C108.194 21.0402 107.928 21.0815 107.66 21.0824H103.556L104.295 15.3233H108.416C108.614 15.3239 108.811 15.3464 109.004 15.3904C109.222 15.4421 109.432 15.528 109.627 15.6453C109.838 15.7698 110.023 15.9395 110.171 16.1438C110.334 16.3979 110.444 16.687 110.493 16.9912C110.571 17.3904 110.583 17.8012 110.53 18.2051V18.2007Z" fill="white"/>
<path d="M122.348 19.674C122.091 19.3228 121.801 19 121.484 18.7104C121.181 18.4406 120.835 18.2323 120.462 18.0956C120.038 17.9428 119.593 17.8673 119.146 17.872C118.433 17.8716 117.728 18.024 117.071 18.3204C116.414 18.6167 115.819 19.051 115.32 19.598C114.212 20.7486 113.54 22.2473 113.303 24.0939C113.071 25.8512 113.307 27.3014 114.013 28.4446C114.322 28.9845 114.757 29.4274 115.275 29.7288C115.793 30.0302 116.376 30.1794 116.965 30.1616C117.882 30.1531 118.774 29.8357 119.515 29.2539C120.33 28.6418 120.988 27.8192 121.43 26.8617L121.015 29.9402H122.784L122.971 28.5072L123.358 25.5494L124.327 18.0934H122.558L122.348 19.674ZM121.985 22.4865L121.87 23.3808C121.676 25.0071 120.999 26.5223 119.939 27.7001C119.862 27.7828 119.783 27.8633 119.704 27.9393C118.998 28.6354 118.268 28.9826 117.515 28.9811C117.219 28.9887 116.925 28.925 116.654 28.7947C116.384 28.6644 116.143 28.4706 115.951 28.2277C115.53 27.706 115.25 27.0706 115.139 26.39C115.008 25.6373 114.997 24.8661 115.108 24.1096C115.25 22.7801 115.771 21.5306 116.599 20.5325C117.416 19.5577 118.331 19.0704 119.345 19.0704C119.747 19.0691 120.143 19.1678 120.504 19.3588C121.024 19.6453 121.447 20.1011 121.713 20.6614C121.979 21.2217 122.074 21.858 121.985 22.4798V22.4865Z" fill="white"/>
<path d="M132.38 17.8519C131.77 17.8493 131.168 17.9849 130.61 18.2499C130.035 18.5247 129.512 18.9112 129.067 19.3901C128.586 19.9063 128.183 20.5008 127.873 21.1518L128.265 18.0956H126.496L125.605 24.9278L124.953 29.9425C125.443 29.8644 125.9 29.6282 126.263 29.265C126.626 28.9018 126.878 28.4286 126.986 27.908C127.014 27.7718 127.032 27.6335 127.04 27.4944L127.605 23.1885C128.036 22.0256 128.708 20.9841 129.57 20.1435C130.356 19.4117 131.127 19.0465 131.883 19.048C132.133 19.0342 132.381 19.0885 132.606 19.2057C132.831 19.323 133.024 19.4994 133.169 19.7187C133.464 20.1658 133.55 20.8365 133.427 21.7308L132.596 28.06C132.565 28.2948 132.582 28.5338 132.644 28.7611C132.707 28.9884 132.814 29.1986 132.959 29.3774C133.103 29.5563 133.282 29.6997 133.482 29.7979C133.682 29.8962 133.9 29.947 134.12 29.9469L135.209 21.6861C135.347 20.6085 135.176 19.7008 134.696 18.963C134.215 18.2253 133.443 17.8549 132.38 17.8519Z" fill="white"/>
<path d="M146.781 18.0956H145.259L138.8 23.8525L139.805 16.1349C139.846 15.9586 139.87 15.7779 139.875 15.5961C139.875 15.5625 139.875 15.5312 139.875 15.4977C139.876 14.998 139.744 14.5085 139.496 14.0862C139.248 13.6639 138.893 13.3261 138.473 13.1122H138.428L137.776 18.109C137.899 18.0892 138.02 18.0601 138.139 18.0218C138.02 18.0601 137.899 18.0892 137.776 18.109L136.228 29.9424H137.998L138.594 25.4018L139.911 24.228L142.077 27.9192C142.44 28.5385 142.943 29.0488 143.539 29.4026C144.135 29.7564 144.805 29.9421 145.485 29.9424L141.35 22.9224L146.781 18.0956ZM138.311 17.957C138.424 17.91 138.533 17.8547 138.638 17.7915C138.533 17.8547 138.424 17.91 138.311 17.957Z" fill="white"/>
<path d="M46.3573 14.438H39.437L37.8003 26.8661L37.765 27.121C37.765 27.1993 37.765 27.2798 37.765 27.358C37.7637 27.6984 37.8247 28.0357 37.9445 28.3506C38.0644 28.6656 38.2408 28.952 38.4636 29.1935C38.6864 29.435 38.9513 29.6268 39.243 29.758C39.5348 29.8892 39.8477 29.9572 40.1639 29.9581H41.354L41.4017 29.587L41.9272 25.6119L42.1349 23.9844H43.7487L45.0696 28.0287L45.1922 28.4021C45.367 28.8332 45.6477 29.2049 46.0041 29.4771C46.3606 29.7494 46.7793 29.9118 47.2151 29.9469H50.2619L49.6638 28.25L48.5485 25.091L47.8922 23.2511C48.5559 22.8243 49.1184 22.2373 49.535 21.5363C49.9517 20.8476 50.2239 20.0694 50.3326 19.2559C50.507 17.8802 50.2149 16.7326 49.4561 15.8129C48.6973 14.8933 47.6644 14.435 46.3573 14.438ZM42.4838 21.3887L43.0488 17.0224H45.0696C45.2825 17.0086 45.495 17.0568 45.6846 17.1618C45.8743 17.2668 46.0342 17.4249 46.1475 17.6194C46.3822 18.0196 46.4549 18.5874 46.3552 19.3252C46.1808 20.7009 45.5618 21.3887 44.4985 21.3887H42.4838Z" fill="white"/>
<path d="M59.4835 19.5421C59.136 19.0759 58.6921 18.7036 58.1873 18.4548C57.6825 18.206 57.1306 18.0876 56.5757 18.109C56.2714 18.1099 55.9678 18.1391 55.6681 18.1962C55.3322 18.262 55.0017 18.3562 54.6795 18.4779C54.3254 18.611 53.9844 18.7817 53.6618 18.9877C53.3107 19.2147 52.9852 19.4848 52.6919 19.7925C52.0073 20.494 51.4889 21.3618 51.1799 22.3233C50.9774 22.9124 50.838 23.5245 50.7645 24.1476C50.6409 24.9536 50.6472 25.7764 50.7832 26.58C50.8791 27.2008 51.0957 27.7927 51.4187 28.3172C51.707 28.7501 52.0702 29.119 52.4883 29.4037C52.8711 29.6737 53.2919 29.8753 53.7345 30.0006C54.1365 30.1097 54.5495 30.1645 54.964 30.1638C56.3099 30.1638 57.4467 29.4469 58.3744 28.0131L58.1127 29.9581H61.9654L63.5002 18.3326H59.6455L59.4835 19.5421ZM59.0078 23.1326L58.9497 23.5797C58.8075 24.7335 58.3943 25.8293 57.7492 26.7634C57.6516 26.902 57.554 27.0294 57.4564 27.1434C57.0202 27.6576 56.5598 27.9147 56.0752 27.9147C55.4826 27.9147 55.0589 27.563 54.8041 26.8595C54.5493 26.156 54.4953 25.2692 54.6421 24.199C54.7903 23.0409 55.1094 22.1146 55.5996 21.4201C56.0897 20.7255 56.6436 20.3775 57.2611 20.376C57.486 20.3786 57.7076 20.4342 57.9103 20.5389C58.113 20.6435 58.292 20.7948 58.4346 20.9819C58.6683 21.2748 58.8405 21.6187 58.9395 21.9899C59.0384 22.361 59.0617 22.7508 59.0078 23.1326Z" fill="white"/>
<path d="M86.0309 19.1397C85.6568 18.7943 85.2164 18.5423 84.7411 18.4019C84.0962 18.1961 83.426 18.0973 82.7535 18.109C81.1378 18.0882 79.5691 18.6937 78.3338 19.8148C77.0877 20.893 76.2544 22.4275 75.9931 24.1252C75.7314 25.7916 76.108 27.2142 77.1229 28.3932C78.1378 29.5721 79.483 30.1623 81.1584 30.1638C82.2117 30.1793 83.253 29.9225 84.1949 29.4149C85.0628 28.96 85.7857 28.2379 86.2718 27.3401L85.2437 26.4705C84.9518 26.7811 84.6302 27.0577 84.2842 27.2954C83.6904 27.7015 83 27.9135 82.2966 27.9058C80.4965 27.9058 79.6519 26.9079 79.7627 24.9122C79.7663 24.8635 79.7866 24.8181 79.8196 24.7846C79.8526 24.7511 79.896 24.7321 79.9413 24.7311C81.5497 24.7329 83.139 24.356 84.5978 23.6267C85.844 23.0305 86.5702 22.125 86.7765 20.9103C86.814 20.6147 86.7722 20.3138 86.656 20.0429C86.5064 19.6995 86.2938 19.3922 86.0309 19.1397ZM83.7816 21.5408C83.5933 22.4693 82.5714 23.0268 80.716 23.2131L80.0306 23.2757C80.2132 22.5032 80.5538 21.7845 81.0276 21.1719C81.204 20.9279 81.4285 20.7292 81.685 20.59C81.9414 20.4508 82.2234 20.3747 82.5105 20.3671C82.6874 20.366 82.8638 20.3877 83.0359 20.4319C83.1878 20.472 83.3334 20.536 83.4679 20.6219C83.5591 20.6757 83.6367 20.7524 83.6943 20.8455C83.7517 20.9491 83.789 21.0641 83.8039 21.1835C83.8189 21.303 83.8113 21.4246 83.7816 21.5408Z" fill="white"/>
<path d="M95.645 18.109C95.2147 18.1049 94.7862 18.1705 94.374 18.3035C93.9547 18.4523 93.5652 18.6843 93.2254 18.9876C92.8137 19.3538 92.4534 19.7823 92.1558 20.2597L92.4237 18.3326H88.5627L87.6738 25.0799L87.1254 29.2226L87.0237 29.9581H88.7932C89.364 29.9609 89.9171 29.7452 90.3538 29.3496C90.7906 28.954 91.0825 28.4043 91.1776 27.7984L91.1962 27.6509L91.7591 23.4031C92.114 22.5844 92.5649 21.818 93.1008 21.1227C93.5162 20.6174 93.9461 20.3626 94.3636 20.3626C95.1694 20.3626 95.465 21.2024 95.2504 22.8822L94.7582 26.6247L94.6585 27.3848C94.6595 28.0286 94.8832 28.6488 95.286 29.1246C95.6888 29.6004 96.2418 29.8975 96.8372 29.9581H98.1685L98.208 29.6496L98.7459 25.5449L99.1156 22.7257C99.3039 21.3351 99.0789 20.2173 98.4406 19.3722C97.8023 18.5271 96.8704 18.106 95.645 18.109Z" fill="white"/>
<path d="M73.5236 18.3326L70.2587 25.4868L70.132 24.8161C70.009 24.7954 69.8847 24.7849 69.7602 24.7848C69.1395 24.7825 68.542 25.0388 68.093 25.5002C67.6439 25.9615 67.3781 26.592 67.3512 27.2595C67.3244 27.9271 67.5386 28.58 67.9489 29.0813C68.3593 29.5827 68.9339 29.8937 69.5525 29.9492H69.9825C70.3684 29.9105 70.7399 29.7719 71.0653 29.5454C71.3908 29.3188 71.6606 29.011 71.8517 28.648L71.9618 28.411L76.6723 18.3326H73.5236Z" fill="white"/>
<path d="M66.9543 18.3326H64.8296L65.0373 19.3565L65.8161 23.1974C66.1381 23.3838 66.4952 23.4886 66.8605 23.504C67.2257 23.5193 67.5894 23.4448 67.9239 23.286C68.2583 23.1273 68.5547 22.8885 68.7905 22.5878C69.0263 22.2871 69.1952 21.9325 69.2845 21.551C69.3738 21.1694 69.381 20.771 69.3056 20.386C69.2303 20.0009 69.0743 19.6395 68.8496 19.3292C68.6249 19.0188 68.3374 18.7677 68.009 18.595C67.6805 18.4224 67.3198 18.3326 66.9543 18.3326Z" fill="white"/>
</svg>
